<svg width="28" height="28" viewBox="0 0 22 22" fill="none" xmlns="http://www.w3.org/2000/svg">
  <path d="M16.2909 12.863C16.2968 12.4597 16.0112 12.3875 15.6658 12.4043C15.05 12.3984 14.4341 12.3984 13.8182 12.3875C13.2612 12.3782 12.4982 12.4269 12.0386 12.0514C11.637 11.722 11.5665 11.249 11.732 10.823C11.9765 10.1886 12.7184 9.91893 13.3611 9.96514C13.9678 10.029 14.3585 9.85171 13.8963 9.27365C13.6056 8.85102 11.9773 6.54969 11.5068 5.9061C11.1547 5.55237 10.9035 6.08842 10.712 6.35309C10.2129 7.06222 8.86855 8.94597 8.70975 9.17703C8.61816 9.32995 8.47365 9.4627 8.44088 9.64082C8.39803 10.0525 9.0097 9.97606 9.26008 9.96178C9.96334 9.93657 10.7229 10.2987 10.8674 11.0246C10.9943 11.6103 10.5658 12.206 9.97006 12.2841C9.37267 12.3454 8.924 11.8455 8.34594 11.7766C7.01085 11.5195 5.72197 12.5715 5.70769 13.9284C5.69928 14.7669 6.12863 15.5349 6.87221 15.934C7.5679 16.3062 8.4392 16.3087 9.11641 15.8903C9.61045 15.5844 10.0028 15.0694 10.1146 14.4955C10.2146 13.9813 10.1658 13.3142 10.5851 12.9286C11.0749 12.4774 11.9353 12.6815 12.2731 13.2193C12.4058 13.4226 12.4688 13.6663 12.468 13.9082C12.468 14.3619 12.468 15.1711 12.4688 15.6139C12.4512 15.829 12.5184 16.0508 12.7503 16.1113C13.7199 16.1709 14.9189 16.1491 15.9675 16.1188C16.2313 16.0819 16.2993 15.8273 16.2901 15.5971C16.2901 14.7174 16.2951 13.6461 16.2909 12.863Z" fill="#A7AAAD"/>
</svg>
